HIERARCHY
ROOT Hips
{
 OFFSET 0.000000 0.000000 0.000000
 CHANNELS 6 Xposition Yposition Zposition Yrotation Xrotation Zrotation
 JOINT Chest
 {
  OFFSET 0.000000 9.588913 -0.003946
  CHANNELS 3 Yrotation Xrotation Zrotation
  JOINT Chest2
  {
   OFFSET 0.000000 9.541882 0.008053
   CHANNELS 3 Yrotation Xrotation Zrotation
   JOINT Chest3
   {
    OFFSET 0.000000 9.501360 0.000000
    CHANNELS 3 Yrotation Xrotation Zrotation
    JOINT Chest4
    {
     OFFSET 0.000000 9.491660 0.000000
     CHANNELS 3 Yrotation Xrotation Zrotation
     JOINT Neck
     {
      OFFSET 0.000000 14.331917 0.000000
      CHANNELS 3 Yrotation Xrotation Zrotation
      JOINT Head
      {
       OFFSET 0.000000 8.884799 0.017034
       CHANNELS 3 Yrotation Xrotation Zrotation
       End Site
       {
        OFFSET 0.000000 16.896195 0.008993
       }
      }
     }
     JOINT RightCollar
     {
      OFFSET -2.923010 9.499495 0.000000
      CHANNELS 3 Yrotation Xrotation Zrotation
      JOINT RightShoulder
      {
       OFFSET -13.795216 0.000000 0.000000
       CHANNELS 3 Yrotation Xrotation Zrotation
       JOINT RightElbow
       {
        OFFSET -30.272209 0.000000 0.000000
        CHANNELS 3 Yrotation Xrotation Zrotation
        JOINT RightWrist
        {
         OFFSET -24.478199 0.000000 0.000000
         CHANNELS 3 Yrotation Xrotation Zrotation
         End Site
         {
          OFFSET -18.090752 0.000000 0.000000
         }
        }
       }
      }
     }
     JOINT LeftCollar
     {
      OFFSET 2.923010 9.499495 0.000000
      CHANNELS 3 Yrotation Xrotation Zrotation
      JOINT LeftShoulder
      {
       OFFSET 13.795216 0.000000 0.000000
       CHANNELS 3 Yrotation Xrotation Zrotation
       JOINT LeftElbow
       {
        OFFSET 30.272209 0.000000 0.000000
        CHANNELS 3 Yrotation Xrotation Zrotation
        JOINT LeftWrist
        {
         OFFSET 24.478199 0.000000 0.000000
         CHANNELS 3 Yrotation Xrotation Zrotation
         End Site
         {
          OFFSET 18.090752 0.000000 0.000000
         }
        }
       }
      }
     }
    }
   }
  }
 }
 JOINT RightHip
 {
  OFFSET -7.826875 0.019532 0.001973
  CHANNELS 3 Yrotation Xrotation Zrotation
  JOINT RightKnee
  {
   OFFSET 0.000000 -40.546152 -0.001885
   CHANNELS 3 Yrotation Xrotation Zrotation
   JOINT RightAnkle
   {
    OFFSET 0.000000 -39.417092 -0.003189
    CHANNELS 3 Yrotation Xrotation Zrotation
    JOINT RightToe
    {
     OFFSET 0.000000 -7.579396 17.243563
     CHANNELS 3 Yrotation Xrotation Zrotation
     End Site
     {
      OFFSET 0.000000 -1.500329 6.694466
     }
    }
   }
  }
 }
 JOINT LeftHip
 {
  OFFSET 7.826875 0.019532 0.001973
  CHANNELS 3 Yrotation Xrotation Zrotation
  JOINT LeftKnee
  {
   OFFSET 0.000000 -40.546152 -0.001885
   CHANNELS 3 Yrotation Xrotation Zrotation
   JOINT LeftAnkle
   {
    OFFSET 0.000000 -39.417092 -0.003189
    CHANNELS 3 Yrotation Xrotation Zrotation
    JOINT LeftToe
    {
     OFFSET 0.000000 -7.579396 17.243563
     CHANNELS 3 Yrotation Xrotation Zrotation
     End Site
     {
      OFFSET 0.000000 -1.500329 6.694466
     }
    }
   }
  }
 }
}
MOTION
Frames: 8
Frame Time: 0.008333
0.000000 87.345680 0.000000 0.000000 -5.767889 0.000000 0.000000 11.653876 0.000000 0.000000 -5.885988 0.000000 0.000000 -0.000000 0.000000 0.000000 -0.000000 0.000000 0.000000 12.528808 0.000000 0.000000 0.711711 0.000000 0.000000 -0.000000 0.000000 0.000000 -0.000000 0.000000 2.309063 -0.000000 0.000000 -2.309063 -0.000000 -0.000000 0.000000 -0.000000 0.000000 0.000000 0.000000 0.000000 -2.309063 0.000000 0.000000 2.309063 -0.000000 0.000000 0.000000 8.520374 0.000000 0.000000 1.905768 0.000000 -0.000000 -4.658254 0.000000 0.000000 -0.000000 0.000000 0.000000 8.520374 0.000000 0.000000 1.905768 0.000000 -0.000000 -4.658254 0.000000 0.000000 -0.000000 0.000000
0.670135 88.749752 5.179188 -57.129825 -6.530672 0.404007 7.583592 3.348437 1.203070 4.323068 1.936173 0.581184 5.407654 2.412926 0.749296 4.323068 1.936173 0.581184 0.201125 21.820925 0.735622 0.047369 -2.447072 0.741342 -11.686270 0.502528 -0.337648 4.006134 -3.846565 88.480479 0.582413 -6.742390 1.539013 3.685378 -15.410758 -3.197104 -16.616803 0.081983 0.543723 7.585123 1.544650 -86.366877 3.128451 2.528831 3.321570 0.647589 -3.241412 4.895404 8.711415 12.659451 -5.666375 6.697584 -1.071667 -0.503463 -5.339397 -3.868996 4.810224 -0.016899 0.140078 -0.005266 13.760477 10.455982 7.112045 11.872968 1.353965 0.021319 -1.677156 -4.800805 -3.627515 -0.005216 -0.095617 -0.007248
0.678061 88.749263 5.182057 -57.096903 -6.511823 0.405954 7.596992 3.344386 1.202140 4.330685 1.933127 0.580962 5.417168 2.409108 0.749021 4.330685 1.933127 0.580962 0.194873 21.784400 0.731552 0.041576 -2.489880 0.738286 -11.688386 0.526109 -0.331113 3.929141 -3.820539 88.490971 0.558119 -6.888374 1.530272 3.693831 -15.442252 -3.181846 -16.592493 0.079518 0.556312 7.647202 1.581571 -86.374076 3.046625 2.404250 3.208833 0.511451 -3.352326 4.993626 8.703598 12.643256 -5.673583 6.683744 -1.069463 -0.505301 -5.349621 -3.871476 4.817544 -0.016628 0.139608 -0.006776 13.753143 10.428202 7.093613 11.865470 1.356867 0.023674 -1.690851 -4.804990 -3.617241 -0.001823 -0.090123 -0.004674
0.687306 88.748804 5.186060 -57.049974 -6.494525 0.409872 7.604260 3.339525 1.200128 4.335696 1.930802 0.580520 5.423424 2.406199 0.748467 4.335696 1.930802 0.580520 0.189941 21.752257 0.727878 0.037112 -2.527531 0.735368 -11.689391 0.542909 -0.327386 3.868637 -3.794466 88.502325 0.539927 -7.006095 1.520006 3.700008 -15.468034 -3.174635 -16.574429 0.079762 0.561532 7.710894 1.597444 -86.397628 2.977040 2.267781 3.107861 0.368437 -3.466560 5.103085 8.685089 12.631984 -5.684216 6.673074 -1.069933 -0.507316 -5.368305 -3.873531 4.826063 -0.015871 0.138796 -0.008291 13.733106 10.402308 7.083318 11.854897 1.361542 0.025607 -1.758065 -4.811030 -3.610708 -0.004367 -0.088370 -0.004602
0.697009 88.748456 5.191053 -56.992728 -6.483665 0.414149 7.606421 3.335389 1.197806 4.338777 1.930015 0.580651 5.427275 2.405208 0.748637 4.338777 1.930015 0.580651 0.185600 21.725602 0.724089 0.033311 -2.558745 0.732213 -11.691116 0.554370 -0.325267 3.825347 -3.768653 88.512842 0.527662 -7.098533 1.505956 3.702423 -15.488632 -3.170664 -16.560157 0.083351 0.559764 7.770987 1.592915 -86.436853 2.919518 2.120582 3.017835 0.223236 -3.583723 5.216062 8.655085 12.628847 -5.695746 6.662690 -1.071384 -0.509697 -5.387887 -3.875619 4.835409 -0.014710 0.137333 -0.009684 13.707852 10.384333 7.087295 11.839682 1.365475 0.027846 -1.886097 -4.817912 -3.611051 -0.013719 -0.091460 -0.007002
0.706608 88.748259 5.196824 -56.932147 -6.482285 0.418229 7.608772 3.335775 1.197313 4.340840 1.930600 0.580826 5.429856 2.405933 0.748874 4.340840 1.930600 0.580826 0.181961 21.704608 0.720174 0.030296 -2.583328 0.728783 -11.694296 0.561834 -0.322376 3.796529 -3.743847 88.518948 0.519208 -7.163818 1.490813 3.702900 -15.506430 -3.169532 -16.549231 0.090041 0.553235 7.820565 1.563973 -86.490083 2.882721 1.964460 2.935269 0.075889 -3.704620 5.328432 8.618777 12.634904 -5.705509 6.652450 -1.071349 -0.514459 -5.404633 -3.878531 4.844985 -0.013374 0.135163 -0.009750 13.684372 10.372548 7.074782 11.819695 1.368067 0.030511 -1.913174 -4.819438 -3.604969 -0.014424 -0.090707 -0.005314
0.717064 88.748089 5.202921 -56.868605 -6.484771 0.424206 7.611859 3.338438 1.196573 4.342866 1.931896 0.580478 5.432390 2.407553 0.748466 4.342866 1.931896 0.580479 0.180397 21.689080 0.715621 0.029650 -2.601521 0.724216 -11.701031 0.564298 -0.318090 3.779160 -3.720319 88.520316 0.513645 -7.200065 1.478514 3.701280 -15.518901 -3.172370 -16.544808 0.100273 0.543757 7.853151 1.508371 -86.555922 2.867349 1.803655 2.857085 -0.071655 -3.834496 5.437742 8.577940 12.645396 -5.716775 6.643898 -1.071683 -0.521564 -5.420248 -3.881851 4.854426 -0.012179 0.133231 -0.008220 13.657243 10.362456 7.051292 11.803920 1.371655 0.030461 -1.881606 -4.816866 -3.593306 -0.010843 -0.088157 -0.001939
0.729012 88.747855 5.208862 -56.801120 -6.486674 0.432254 7.614112 3.340754 1.194281 4.344900 1.933459 0.579502 5.434932 2.409515 0.747275 4.344900 1.933459 0.579502 0.182577 21.678236 0.710085 0.033235 -2.614246 0.717760 -11.709769 0.562013 -0.312088 3.770324 -3.700536 88.518964 0.510473 -7.207465 1.467748 3.696544 -15.523426 -3.176256 -16.548132 0.111874 0.532016 7.868045 1.432348 -86.632665 2.865775 1.641040 2.781554 -0.210820 -3.968295 5.541198 8.533553 12.656465 -5.731356 6.635977 -1.074192 -0.528436 -5.436818 -3.884456 4.863678 -0.011071 0.131910 -0.006479 13.622420 10.350935 7.032210 11.794506 1.378988 0.028811 -1.875677 -4.814646 -3.584588 -0.010996 -0.087881 0.000197
